<?xml version="1.0" encoding="UTF-8"?>
<svg version="1.1" xmlns="http://www.w3.org/2000/svg" width="196" height="47">
<path d="M0 0 C1.27500981 0.60438777 2.54264643 1.22444821 3.8046875 1.85546875 C6.41400016 0.9618327 6.41400016 0.9618327 8.8046875 -0.14453125 C10.3046875 1.23046875 10.3046875 1.23046875 11.8046875 2.85546875 C11.8046875 3.51546875 11.8046875 4.17546875 11.8046875 4.85546875 C13.4546875 4.52546875 15.1046875 4.19546875 16.8046875 3.85546875 C19.7009838 8.38880208 19.7009838 8.38880208 20.3046875 11.10546875 C20.4696875 11.68296875 20.6346875 12.26046875 20.8046875 12.85546875 C21.7946875 13.18546875 22.7846875 13.51546875 23.8046875 13.85546875 C25.85351993 16.87480075 25.99344933 19.26899399 25.8046875 22.85546875 C25.8046875 25.06576408 26.25286193 26.84214468 26.8046875 28.98046875 C26.9903125 29.70492188 27.1759375 30.429375 27.3671875 31.17578125 C27.5115625 31.73007812 27.6559375 32.284375 27.8046875 32.85546875 C23.13247981 36.76304309 17.59640044 38.34133352 11.92456055 40.35424805 C10.00391461 41.03878907 8.0909504 41.74226705 6.17773438 42.44726562 C4.3437207 43.1037207 4.3437207 43.1037207 2.47265625 43.7734375 C1.36172607 44.17328857 0.2507959 44.57313965 -0.89379883 44.98510742 C-4.45452045 45.92380243 -7.52901593 46.01020278 -11.1953125 45.85546875 C-12.70883945 41.96475629 -14.20372815 38.06714045 -15.6953125 34.16796875 C-16.12457031 33.06517578 -16.55382812 31.96238281 -16.99609375 30.82617188 C-17.40214844 29.75947266 -17.80820312 28.69277344 -18.2265625 27.59375 C-18.60361328 26.61446533 -18.98066406 25.63518066 -19.36914062 24.6262207 C-20.19015029 21.87278139 -20.35926059 19.70862085 -20.1953125 16.85546875 C-19.2465625 16.44296875 -18.2978125 16.03046875 -17.3203125 15.60546875 C-13.83637831 13.6544656 -13.86192129 13.19455466 -12.1953125 9.85546875 C-10.63028304 8.03141873 -8.99849829 6.26348267 -7.3203125 4.54296875 C-6.45664063 3.63933594 -5.59296875 2.73570312 -4.703125 1.8046875 C-2.1953125 -0.14453125 -2.1953125 -0.14453125 0 0 Z M-7.1953125 9.85546875 C-8.1853125 10.84546875 -9.1753125 11.83546875 -10.1953125 12.85546875 C-8.2153125 12.52546875 -6.2353125 12.19546875 -4.1953125 11.85546875 C-5.1853125 11.19546875 -6.1753125 10.53546875 -7.1953125 9.85546875 Z M11.8046875 20.85546875 C11.4746875 21.51546875 11.1446875 22.17546875 10.8046875 22.85546875 C11.7946875 22.52546875 12.7846875 22.19546875 13.8046875 21.85546875 C13.1446875 21.52546875 12.4846875 21.19546875 11.8046875 20.85546875 Z M4.8046875 21.85546875 C5.8046875 23.85546875 5.8046875 23.85546875 5.8046875 23.85546875 Z " fill="#848384" transform="translate(20.1953125,1.14453125)"/>
<path d="M0 0 C18 0 18 0 25 4 C28.4950918 7.83332649 28.32366354 11.64745477 28.30078125 16.59765625 C27.97730892 19.18123391 27.38650697 20.80549415 26 23 C23.5625 24.625 23.5625 24.625 21 26 C20.01 26.66 19.02 27.32 18 28 C15.73828125 28.1953125 15.73828125 28.1953125 13.3125 28.125 C12.50425781 28.10695313 11.69601563 28.08890625 10.86328125 28.0703125 C10.24839844 28.04710938 9.63351563 28.02390625 9 28 C9 30.64 9 33.28 9 36 C6.03 36 3.06 36 0 36 C0 24.12 0 12.24 0 0 Z M13 8 C9.11265631 11.20818244 9.11265631 11.20818244 7.6875 15.8125 C7.790625 16.534375 7.89375 17.25625 8 18 C11.0832635 19.54163175 13.60878099 19.29747535 17 19 C19.21750908 17.4607536 19.21750908 17.4607536 20 15 C19.65022176 12.29164947 19.65022176 12.29164947 18 10 C15.47627099 8.63921965 15.47627099 8.63921965 13 8 Z " fill="#0BB6FE" transform="translate(108,11)"/>
<path d="M0 0 C0.33 -0.33 0.66 -0.66 1 -1 C3.97 -1 6.94 -1 10 -1 C10 7.58 10 16.16 10 25 C6.33333333 25 2.66666667 25 -1 25 C-2.0725 25.226875 -3.145 25.45375 -4.25 25.6875 C-9.67134609 26.13927884 -12.31099099 24.42232338 -16.375 21 C-18.85246939 16.42621035 -18.6363352 12.09068156 -18 7 C-16.16695461 2.60069107 -13.51889846 0.12916138 -9.1875 -1.8125 C-5.87990563 -2.09600809 -3.12012016 -1.02003928 0 0 Z M-7.25 7.625 C-9.2991879 9.92779775 -9.2991879 9.92779775 -9.0625 13.125 C-8.26203408 16.15030796 -8.26203408 16.15030796 -5.6875 17.5625 C-3.00208191 18.24759259 -3.00208191 18.24759259 -0.6875 17 C1.262909 15.04538078 1.262909 15.04538078 1.4375 12 C1.23471757 9.0364866 1.23471757 9.0364866 -0.3125 7.125 C-3.13811373 5.24125752 -4.59006869 5.7039385 -7.25 7.625 Z " fill="#0BB6FE" transform="translate(156,12)"/>
<path d="M0 0 C2.97 0 5.94 0 9 0 C9.84069415 1.60032137 10.67231505 3.20541171 11.5 4.8125 C11.9640625 5.70582031 12.428125 6.59914063 12.90625 7.51953125 C14 10 14 10 14 13 C14.66 13 15.32 13 16 13 C16.12375 11.96875 16.2475 10.9375 16.375 9.875 C16.93889814 6.37883154 17.78682059 3.31602373 19 0 C21.97 0 24.94 0 28 0 C27.43752097 6.65600182 25.17645861 12.43713793 22.75 18.625 C22.36714844 19.64851563 21.98429687 20.67203125 21.58984375 21.7265625 C19.19958426 27.8660919 17.15674665 32.92162667 11 36 C8.90625 35.9140625 8.90625 35.9140625 6.5 35.625 C5.30890625 35.48964844 5.30890625 35.48964844 4.09375 35.3515625 C2 35 2 35 0 34 C0.36712972 31.28324005 0.72744599 29.38936287 2.3125 27.125 C4 26 4 26 6.1875 26.3125 C6.785625 26.539375 7.38375 26.76625 8 27 C9.2201135 23.33965949 8.67744879 22.64153485 7.12890625 19.21875 C6.71962891 18.29449219 6.31035156 17.37023437 5.88867188 16.41796875 C5.45103516 15.45503906 5.01339844 14.49210937 4.5625 13.5 C3.70477689 11.59593117 2.85169128 9.6897645 2.00390625 7.78125 C1.62049072 6.93626953 1.2370752 6.09128906 0.84204102 5.22070312 C0 3 0 3 0 0 Z " fill="#0BB6FE" transform="translate(168,11)"/>
<path d="M0 0 C2.1723491 3.25852365 4.07119658 6.59244728 6 10 C6.64066406 9.79503906 7.28132813 9.59007812 7.94140625 9.37890625 C12.97287851 7.81172636 17.75988003 6.56957826 23 6 C23.66 8.64 24.32 11.28 25 14 C20.32779231 17.90757434 14.79171294 19.48586477 9.11987305 21.4987793 C7.19922711 22.18332032 5.2862629 22.8867983 3.37304688 23.59179688 C1.5390332 24.24825195 1.5390332 24.24825195 -0.33203125 24.91796875 C-1.44296143 25.31781982 -2.5538916 25.7176709 -3.69848633 26.12963867 C-7.25920795 27.06833368 -10.33370343 27.15473403 -14 27 C-14.84600276 24.9635505 -15.6762825 22.92056513 -16.5 20.875 C-16.9640625 19.73804687 -17.428125 18.60109375 -17.90625 17.4296875 C-18.98315041 14.0528355 -19.21360807 11.51385272 -19 8 C-15.74832132 11.25167868 -13.48373543 13.54879371 -12 18 C-12 19.32 -12 20.64 -12 22 C-11.34 22 -10.68 22 -10 22 C-9.9071875 20.824375 -9.9071875 20.824375 -9.8125 19.625 C-9.544375 18.75875 -9.27625 17.8925 -9 17 C-7.3523962 16.28752268 -5.68236471 15.62599617 -4 15 C-1.49602502 12.91170257 -1.49602502 12.91170257 0 10 C-0.24076271 6.39727382 -0.24076271 6.39727382 -1 3 C-0.67 2.01 -0.34 1.02 0 0 Z " fill="#838587" transform="translate(23,20)"/>
<path d="M0 0 C2.97 0 5.94 0 9 0 C9 2.31 9 4.62 9 7 C11.31 7 13.62 7 16 7 C16 9.64 16 12.28 16 15 C13.69 15 11.38 15 9 15 C9.33 18.3 9.66 21.6 10 25 C13.465 24.505 13.465 24.505 17 24 C16.51724138 31.48275862 16.51724138 31.48275862 14.4375 33.5625 C10.86673411 34.2034067 7.45449848 34.17398972 4 33 C1.06364101 30.73322915 0.08845241 29.60699276 -0.45410156 25.88378906 C-0.4331543 24.68979492 -0.41220703 23.49580078 -0.390625 22.265625 C-0.37773438 20.97011719 -0.36484375 19.67460937 -0.3515625 18.33984375 C-0.31814366 16.97655176 -0.28428391 15.61327051 -0.25 14.25 C-0.22992707 12.87111936 -0.21167767 11.49221088 -0.1953125 10.11328125 C-0.14815448 6.74148256 -0.08234538 3.37109313 0 0 Z " fill="#0BB6FE" transform="translate(54,4)"/>
<path d="M0 0 C0 2.97 0 5.94 0 9 C-3.465 10.485 -3.465 10.485 -7 12 C-7.33 16.95 -7.66 21.9 -8 27 C-10.97 27 -13.94 27 -17 27 C-17 18.42 -17 9.84 -17 1 C-13.7 1 -10.4 1 -7 1 C-4 0 -4 0 0 0 Z " fill="#0BB7FE" transform="translate(91,10)"/>
<path d="M0 0 C2.5 2.1875 2.5 2.1875 4 5 C4.08551865 9.10489518 3.26796988 10.66684825 0.6875 13.875 C-2 16 -2 16 -6 16 C-6.33 17.65 -6.66 19.3 -7 21 C-7.66 21 -8.32 21 -9 21 C-14.07008358 8.9667115 -14.07008358 8.9667115 -12 3 C-8.26829533 -1.39024079 -5.41578033 -1.67396847 0 0 Z " fill="#F4F5F5" transform="translate(20,21)"/>
<path d="M0 0 C2.97 0 5.94 0 9 0 C9 8.58 9 17.16 9 26 C6.03 26 3.06 26 0 26 C0 17.42 0 8.84 0 0 Z " fill="#0CB7FE" transform="translate(95,11)"/>
<path d="M0 0 C2.11103658 2.95545121 2.19785783 5.43855901 2 9 C-0.2235486 9.99793249 -2.44921571 10.99026977 -4.6796875 11.97265625 C-6.39902367 12.73391115 -8.10858028 13.51733746 -9.8125 14.3125 C-12 15 -12 15 -14.125 15 C-17.1707418 13.37560437 -17.88251088 11.16621917 -19 8 C-18.46875 5.9765625 -18.46875 5.9765625 -17 4 C-14.1015625 2.48046875 -14.1015625 2.48046875 -10.625 1.1875 C-9.48289062 0.74792969 -8.34078125 0.30835938 -7.1640625 -0.14453125 C-4.13829762 -0.96260842 -2.81675729 -1.26291231 0 0 Z M-12 7 C-12.33 7.66 -12.66 8.32 -13 9 C-12.01 8.67 -11.02 8.34 -10 8 C-10.66 7.67 -11.32 7.34 -12 7 Z " fill="#0AB9FE" transform="translate(44,15)"/>
<path d="M0 0 C1.27500981 0.60438777 2.54264643 1.22444821 3.8046875 1.85546875 C6.41400016 0.9618327 6.41400016 0.9618327 8.8046875 -0.14453125 C10.3046875 1.23046875 10.3046875 1.23046875 11.8046875 2.85546875 C11.8046875 3.51546875 11.8046875 4.17546875 11.8046875 4.85546875 C9.243943 5.8394446 6.68127258 6.81776842 4.1171875 7.79296875 C3.39595703 8.07076172 2.67472656 8.34855469 1.93164062 8.63476562 C-1.76972296 10.03756552 -5.28199477 11.17489175 -9.1953125 11.85546875 C-10.8745363 12.48984219 -12.54539668 13.14836197 -14.1953125 13.85546875 C-12.60574966 10.04230397 -10.18770553 7.48268475 -7.3203125 4.54296875 C-6.45664063 3.63933594 -5.59296875 2.73570312 -4.703125 1.8046875 C-2.1953125 -0.14453125 -2.1953125 -0.14453125 0 0 Z " fill="#0AB8FD" transform="translate(20.1953125,1.14453125)"/>
<path d="M0 0 C2.5 0.25 2.5 0.25 4.5 2.25 C4.17028521 5.54714793 3.8773161 6.8726839 1.5 9.25 C-1.125 8.875 -1.125 8.875 -3.5 8.25 C-4.125 5.375 -4.125 5.375 -4.5 2.25 C-2.5 0.25 -2.5 0.25 0 0 Z " fill="#0BB4FE" transform="translate(99.5,-0.25)"/>
<path d="M0 0 C1.2065625 0.0309375 1.2065625 0.0309375 2.4375 0.0625 C3.0625 2.4375 3.0625 2.4375 3.4375 5.0625 C2.7775 5.7225 2.1175 6.3825 1.4375 7.0625 C-1.1875 6.6875 -1.1875 6.6875 -3.5625 6.0625 C-3.605221 4.39638095 -3.60313832 2.72867115 -3.5625 1.0625 C-2.5625 0.0625 -2.5625 0.0625 0 0 Z " fill="#888B8D" transform="translate(15.5625,24.9375)"/>
<path d="M0 0 C1.84765625 0.33984375 1.84765625 0.33984375 4.0625 0.9375 C5.16271484 1.22947266 5.16271484 1.22947266 6.28515625 1.52734375 C7.13400391 1.76130859 7.13400391 1.76130859 8 2 C6.68 2.33 5.36 2.66 4 3 C3.67 4.65 3.34 6.3 3 8 C2.34 8 1.68 8 1 8 C0.34 5.69 -0.32 3.38 -1 1 C-0.67 0.67 -0.34 0.34 0 0 Z " fill="#E4E5E6" transform="translate(10,34)"/>
<path d="M0 0 C0.99 0 1.98 0 3 0 C3 0.66 3 1.32 3 2 C2.01 2 1.02 2 0 2 C0 1.34 0 0.68 0 0 Z " fill="#0BB6FE" transform="translate(124,24)"/>
<path d="M0 0 C0.99 0 1.98 0 3 0 C3 0.66 3 1.32 3 2 C2.01 2 1.02 2 0 2 C0 1.34 0 0.68 0 0 Z " fill="#0AB5FE" transform="translate(117,24)"/>
<path d="M0 0 C0.66 0 1.32 0 2 0 C2 0.66 2 1.32 2 2 C1.34 2 0.68 2 0 2 C0 1.34 0 0.68 0 0 Z " fill="#0BB3FD" transform="translate(121,24)"/>
</svg>
